<mxfile host="Electron" modified="2024-03-02T11:34:46.244Z" agent="Mozilla/5.0 (Windows NT 10.0; Win64; x64) AppleWebKit/537.36 (KHTML, like Gecko) draw.io/22.0.0 Chrome/114.0.5735.289 Electron/25.8.3 Safari/537.36" etag="7TAqcPeKYTpL1jueG2hz" version="22.0.0" type="device">
  <diagram name="Страница — 1" id="gGU0pYqspVu6Y8VHLPDK">
    <mxGraphModel dx="2518" dy="1678" grid="1" gridSize="10" guides="1" tooltips="1" connect="1" arrows="1" fold="1" page="1" pageScale="1" pageWidth="1100" pageHeight="850" math="0" shadow="0">
      <root>
        <mxCell id="0" />
        <mxCell id="1" parent="0" />
        <mxCell id="r_Gkihgk-6NHchpr0huC-2" value="" style="swimlane;startSize=0;" parent="1" vertex="1">
          <mxGeometry x="90" y="-220" width="700" height="590" as="geometry" />
        </mxCell>
        <mxCell id="r_Gkihgk-6NHchpr0huC-18" value="include" style="endArrow=open;dashed=1;endFill=0;endSize=12;html=1;rounded=0;" parent="r_Gkihgk-6NHchpr0huC-2" source="r_Gkihgk-6NHchpr0huC-28" edge="1">
          <mxGeometry x="-0.0653" y="16" width="160" relative="1" as="geometry">
            <mxPoint x="755.4197049186607" y="459.0589543508281" as="sourcePoint" />
            <mxPoint x="564" y="144" as="targetPoint" />
            <mxPoint as="offset" />
          </mxGeometry>
        </mxCell>
        <mxCell id="r_Gkihgk-6NHchpr0huC-21" value="include" style="endArrow=open;dashed=1;endFill=0;endSize=12;html=1;rounded=0;" parent="r_Gkihgk-6NHchpr0huC-2" source="r_Gkihgk-6NHchpr0huC-33" target="r_Gkihgk-6NHchpr0huC-32" edge="1">
          <mxGeometry x="-0.0653" y="16" width="160" relative="1" as="geometry">
            <mxPoint x="623.736616996154" y="547.7935817868058" as="sourcePoint" />
            <mxPoint x="696.3343685400055" y="572.1114561800016" as="targetPoint" />
            <mxPoint as="offset" />
          </mxGeometry>
        </mxCell>
        <mxCell id="r_Gkihgk-6NHchpr0huC-22" value="include" style="endArrow=open;dashed=1;endFill=0;endSize=12;html=1;rounded=0;" parent="r_Gkihgk-6NHchpr0huC-2" source="r_Gkihgk-6NHchpr0huC-34" target="r_Gkihgk-6NHchpr0huC-32" edge="1">
          <mxGeometry x="-0.0653" y="16" width="160" relative="1" as="geometry">
            <mxPoint x="625.461394207922" y="624.7388109897665" as="sourcePoint" />
            <mxPoint x="694.6153846153848" y="605.3846153846155" as="targetPoint" />
            <mxPoint as="offset" />
          </mxGeometry>
        </mxCell>
        <mxCell id="r_Gkihgk-6NHchpr0huC-23" value="Редактировать комплектующее" style="ellipse;whiteSpace=wrap;html=1;" parent="r_Gkihgk-6NHchpr0huC-2" vertex="1">
          <mxGeometry x="40" y="220" width="140" height="70" as="geometry" />
        </mxCell>
        <mxCell id="r_Gkihgk-6NHchpr0huC-24" value="Добавлять комплектующее" style="ellipse;whiteSpace=wrap;html=1;" parent="r_Gkihgk-6NHchpr0huC-2" vertex="1">
          <mxGeometry x="220" y="70" width="140" height="70" as="geometry" />
        </mxCell>
        <mxCell id="r_Gkihgk-6NHchpr0huC-25" value="Удалять сборку" style="ellipse;whiteSpace=wrap;html=1;" parent="r_Gkihgk-6NHchpr0huC-2" vertex="1">
          <mxGeometry x="60" y="500" width="140" height="70" as="geometry" />
        </mxCell>
        <mxCell id="r_Gkihgk-6NHchpr0huC-26" value="Удалять комплектующее" style="ellipse;whiteSpace=wrap;html=1;" parent="r_Gkihgk-6NHchpr0huC-2" vertex="1">
          <mxGeometry x="150" y="150" width="140" height="70" as="geometry" />
        </mxCell>
        <mxCell id="r_Gkihgk-6NHchpr0huC-27" value="Проверять сборку на совместимость" style="ellipse;whiteSpace=wrap;html=1;" parent="r_Gkihgk-6NHchpr0huC-2" vertex="1">
          <mxGeometry x="240" y="480" width="140" height="70" as="geometry" />
        </mxCell>
        <mxCell id="r_Gkihgk-6NHchpr0huC-28" value="Экспортировать сборку" style="ellipse;whiteSpace=wrap;html=1;" parent="r_Gkihgk-6NHchpr0huC-2" vertex="1">
          <mxGeometry x="390" y="70" width="140" height="70" as="geometry" />
        </mxCell>
        <mxCell id="r_Gkihgk-6NHchpr0huC-29" value="Указывать путь к файлу" style="ellipse;whiteSpace=wrap;html=1;" parent="r_Gkihgk-6NHchpr0huC-2" vertex="1">
          <mxGeometry x="550" y="126" width="140" height="70" as="geometry" />
        </mxCell>
        <mxCell id="r_Gkihgk-6NHchpr0huC-32" value="Выбирать комплектующие" style="ellipse;whiteSpace=wrap;html=1;" parent="r_Gkihgk-6NHchpr0huC-2" vertex="1">
          <mxGeometry x="420" y="450" width="140" height="70" as="geometry" />
        </mxCell>
        <mxCell id="r_Gkihgk-6NHchpr0huC-33" value="Создавать сборку" style="ellipse;whiteSpace=wrap;html=1;" parent="r_Gkihgk-6NHchpr0huC-2" vertex="1">
          <mxGeometry x="390" y="330" width="140" height="70" as="geometry" />
        </mxCell>
        <mxCell id="r_Gkihgk-6NHchpr0huC-34" value="Редактировать сборку" style="ellipse;whiteSpace=wrap;html=1;" parent="r_Gkihgk-6NHchpr0huC-2" vertex="1">
          <mxGeometry x="240" y="380" width="140" height="70" as="geometry" />
        </mxCell>
        <mxCell id="r_Gkihgk-6NHchpr0huC-52" value="Работать с комплектующими" style="ellipse;whiteSpace=wrap;html=1;" parent="r_Gkihgk-6NHchpr0huC-2" vertex="1">
          <mxGeometry x="20" y="60" width="140" height="70" as="geometry" />
        </mxCell>
        <mxCell id="r_Gkihgk-6NHchpr0huC-53" value="extend" style="endArrow=open;dashed=1;endFill=0;endSize=12;html=1;rounded=0;" parent="r_Gkihgk-6NHchpr0huC-2" source="r_Gkihgk-6NHchpr0huC-24" target="r_Gkihgk-6NHchpr0huC-52" edge="1">
          <mxGeometry x="-0.0653" y="16" width="160" relative="1" as="geometry">
            <mxPoint x="170" y="290" as="sourcePoint" />
            <mxPoint x="236" y="308" as="targetPoint" />
            <mxPoint as="offset" />
          </mxGeometry>
        </mxCell>
        <mxCell id="r_Gkihgk-6NHchpr0huC-56" value="extend" style="endArrow=open;dashed=1;endFill=0;endSize=12;html=1;rounded=0;" parent="r_Gkihgk-6NHchpr0huC-2" source="r_Gkihgk-6NHchpr0huC-23" target="r_Gkihgk-6NHchpr0huC-52" edge="1">
          <mxGeometry x="-0.0653" y="16" width="160" relative="1" as="geometry">
            <mxPoint x="324" y="230" as="sourcePoint" />
            <mxPoint x="230" y="262" as="targetPoint" />
            <mxPoint as="offset" />
          </mxGeometry>
        </mxCell>
        <mxCell id="r_Gkihgk-6NHchpr0huC-57" value="extend" style="endArrow=open;dashed=1;endFill=0;endSize=12;html=1;rounded=0;" parent="r_Gkihgk-6NHchpr0huC-2" source="r_Gkihgk-6NHchpr0huC-26" target="r_Gkihgk-6NHchpr0huC-52" edge="1">
          <mxGeometry x="-0.0653" y="16" width="160" relative="1" as="geometry">
            <mxPoint x="427" y="255" as="sourcePoint" />
            <mxPoint x="323" y="211" as="targetPoint" />
            <mxPoint as="offset" />
          </mxGeometry>
        </mxCell>
        <mxCell id="r_Gkihgk-6NHchpr0huC-58" value="Система" style="text;html=1;align=center;verticalAlign=middle;resizable=0;points=[];autosize=1;strokeColor=none;fillColor=none;" parent="r_Gkihgk-6NHchpr0huC-2" vertex="1">
          <mxGeometry x="300" width="70" height="30" as="geometry" />
        </mxCell>
        <mxCell id="r_Gkihgk-6NHchpr0huC-59" value="Работать со сборками" style="ellipse;whiteSpace=wrap;html=1;" parent="r_Gkihgk-6NHchpr0huC-2" vertex="1">
          <mxGeometry x="10" y="340" width="140" height="70" as="geometry" />
        </mxCell>
        <mxCell id="r_Gkihgk-6NHchpr0huC-60" value="Добавлять сборку" style="ellipse;whiteSpace=wrap;html=1;" parent="r_Gkihgk-6NHchpr0huC-2" vertex="1">
          <mxGeometry x="240" y="260" width="140" height="70" as="geometry" />
        </mxCell>
        <mxCell id="r_Gkihgk-6NHchpr0huC-61" value="extend" style="endArrow=open;dashed=1;endFill=0;endSize=12;html=1;rounded=0;" parent="r_Gkihgk-6NHchpr0huC-2" source="r_Gkihgk-6NHchpr0huC-60" target="r_Gkihgk-6NHchpr0huC-59" edge="1">
          <mxGeometry x="-0.0653" y="16" width="160" relative="1" as="geometry">
            <mxPoint x="324" y="542" as="sourcePoint" />
            <mxPoint x="220" y="498" as="targetPoint" />
            <mxPoint as="offset" />
          </mxGeometry>
        </mxCell>
        <mxCell id="r_Gkihgk-6NHchpr0huC-62" value="extend" style="endArrow=open;dashed=1;endFill=0;endSize=12;html=1;rounded=0;" parent="r_Gkihgk-6NHchpr0huC-2" source="r_Gkihgk-6NHchpr0huC-34" target="r_Gkihgk-6NHchpr0huC-59" edge="1">
          <mxGeometry x="-0.0653" y="16" width="160" relative="1" as="geometry">
            <mxPoint x="230" y="506" as="sourcePoint" />
            <mxPoint x="160" y="534" as="targetPoint" />
            <mxPoint as="offset" />
          </mxGeometry>
        </mxCell>
        <mxCell id="r_Gkihgk-6NHchpr0huC-63" value="extend" style="endArrow=open;dashed=1;endFill=0;endSize=12;html=1;rounded=0;" parent="r_Gkihgk-6NHchpr0huC-2" source="r_Gkihgk-6NHchpr0huC-33" target="r_Gkihgk-6NHchpr0huC-60" edge="1">
          <mxGeometry x="-0.0653" y="16" width="160" relative="1" as="geometry">
            <mxPoint x="680" y="370" as="sourcePoint" />
            <mxPoint x="610" y="398" as="targetPoint" />
            <mxPoint as="offset" />
          </mxGeometry>
        </mxCell>
        <mxCell id="r_Gkihgk-6NHchpr0huC-30" value="Импортировать сборку" style="ellipse;whiteSpace=wrap;html=1;" parent="r_Gkihgk-6NHchpr0huC-2" vertex="1">
          <mxGeometry x="390" y="180" width="140" height="70" as="geometry" />
        </mxCell>
        <mxCell id="r_Gkihgk-6NHchpr0huC-19" value="include" style="endArrow=open;dashed=1;endFill=0;endSize=12;html=1;rounded=0;" parent="r_Gkihgk-6NHchpr0huC-2" source="r_Gkihgk-6NHchpr0huC-30" edge="1">
          <mxGeometry x="-0.0653" y="16" width="160" relative="1" as="geometry">
            <mxPoint x="753.557033818737" y="559.2435638886991" as="sourcePoint" />
            <mxPoint x="560.6401187196434" y="183.5499629001115" as="targetPoint" />
            <mxPoint as="offset" />
          </mxGeometry>
        </mxCell>
        <mxCell id="r_Gkihgk-6NHchpr0huC-64" value="extend" style="endArrow=open;dashed=1;endFill=0;endSize=12;html=1;rounded=0;" parent="r_Gkihgk-6NHchpr0huC-2" source="r_Gkihgk-6NHchpr0huC-30" target="r_Gkihgk-6NHchpr0huC-60" edge="1">
          <mxGeometry x="-0.0653" y="16" width="160" relative="1" as="geometry">
            <mxPoint x="530" y="360" as="sourcePoint" />
            <mxPoint x="406" y="306" as="targetPoint" />
            <mxPoint as="offset" />
          </mxGeometry>
        </mxCell>
        <mxCell id="r_Gkihgk-6NHchpr0huC-65" value="extend" style="endArrow=open;dashed=1;endFill=0;endSize=12;html=1;rounded=0;" parent="r_Gkihgk-6NHchpr0huC-2" source="r_Gkihgk-6NHchpr0huC-28" target="r_Gkihgk-6NHchpr0huC-59" edge="1">
          <mxGeometry x="-0.0653" y="16" width="160" relative="1" as="geometry">
            <mxPoint x="370" y="680" as="sourcePoint" />
            <mxPoint x="280" y="680" as="targetPoint" />
            <mxPoint as="offset" />
          </mxGeometry>
        </mxCell>
        <mxCell id="r_Gkihgk-6NHchpr0huC-66" value="extend" style="endArrow=open;dashed=1;endFill=0;endSize=12;html=1;rounded=0;" parent="r_Gkihgk-6NHchpr0huC-2" source="r_Gkihgk-6NHchpr0huC-27" target="r_Gkihgk-6NHchpr0huC-59" edge="1">
          <mxGeometry x="-0.0653" y="16" width="160" relative="1" as="geometry">
            <mxPoint x="220" y="746" as="sourcePoint" />
            <mxPoint x="58" y="570" as="targetPoint" />
            <mxPoint as="offset" />
          </mxGeometry>
        </mxCell>
        <mxCell id="r_Gkihgk-6NHchpr0huC-67" value="extend" style="endArrow=open;dashed=1;endFill=0;endSize=12;html=1;rounded=0;" parent="r_Gkihgk-6NHchpr0huC-2" source="r_Gkihgk-6NHchpr0huC-25" target="r_Gkihgk-6NHchpr0huC-59" edge="1">
          <mxGeometry x="-0.0653" y="16" width="160" relative="1" as="geometry">
            <mxPoint x="150" y="825" as="sourcePoint" />
            <mxPoint x="70" y="535" as="targetPoint" />
            <mxPoint as="offset" />
          </mxGeometry>
        </mxCell>
        <mxCell id="r_Gkihgk-6NHchpr0huC-68" style="rounded=0;orthogonalLoop=1;jettySize=auto;html=1;exitX=0.5;exitY=0.5;exitDx=0;exitDy=0;exitPerimeter=0;endArrow=none;endFill=0;" parent="1" source="r_Gkihgk-6NHchpr0huC-3" target="r_Gkihgk-6NHchpr0huC-52" edge="1">
          <mxGeometry relative="1" as="geometry" />
        </mxCell>
        <mxCell id="r_Gkihgk-6NHchpr0huC-69" style="rounded=0;orthogonalLoop=1;jettySize=auto;html=1;exitX=0.5;exitY=0.5;exitDx=0;exitDy=0;exitPerimeter=0;endArrow=none;endFill=0;" parent="1" source="r_Gkihgk-6NHchpr0huC-3" target="r_Gkihgk-6NHchpr0huC-59" edge="1">
          <mxGeometry relative="1" as="geometry" />
        </mxCell>
        <mxCell id="r_Gkihgk-6NHchpr0huC-3" value="Пользователь" style="shape=umlActor;verticalLabelPosition=bottom;verticalAlign=top;html=1;outlineConnect=0;" parent="1" vertex="1">
          <mxGeometry x="10" y="10" width="30" height="60" as="geometry" />
        </mxCell>
      </root>
    </mxGraphModel>
  </diagram>
</mxfile>
